<?xml version="1.0" encoding="UTF-8"?>
<svg width="598px" height="73px" viewBox="0 0 598 73" version="1.1" xmlns="http://www.w3.org/2000/svg" xmlns:xlink="http://www.w3.org/1999/xlink">
    <!-- Generator: Sketch 50.2 (55047) - http://www.bohemiancoding.com/sketch -->
    <title>Dribbble</title>
    <desc>Created with Sketch.</desc>
    <defs>
        <path d="M264.246679,155 L244.95957,155 L244.95957,99.3847656 L227.527929,99.3847656 L227.527929,83.6132812 L281.629492,83.6132812 L281.629492,99.3847656 L264.246679,99.3847656 L264.246679,155 Z M347.916211,155 L328.531445,155 L328.531445,125.898438 L306.119336,125.898438 L306.119336,155 L286.73457,155 L286.73457,83.6132812 L306.119336,83.6132812 L306.119336,110.078125 L328.531445,110.078125 L328.531445,83.6132812 L347.916211,83.6132812 L347.916211,155 Z M400.628711,155 L358.245898,155 L358.245898,83.6132812 L400.628711,83.6132812 L400.628711,99.0917969 L377.533008,99.0917969 L377.533008,110.322266 L398.919726,110.322266 L398.919726,125.800781 L377.533008,125.800781 L377.533008,139.277344 L400.628711,139.277344 L400.628711,155 Z M472.704102,155 L469.188477,141.621094 L445.995117,141.621094 L442.381836,155 L421.19043,155 L444.481445,83.3203125 L470.213867,83.3203125 L493.797852,155 L472.704102,155 Z M465.18457,125.800781 L462.108398,114.082031 C461.392249,111.477852 460.52149,108.108745 459.496094,103.974609 C458.470698,99.8404741 457.795249,96.8782642 457.469727,95.0878906 C457.176756,96.7480552 456.598963,99.4824028 455.736328,103.291016 C454.873694,107.099628 452.961278,114.602809 449.999023,125.800781 L465.18457,125.800781 Z M548.219336,106.318359 C548.219336,114.29366 545.867472,120.45408 541.163672,124.799805 C536.459872,129.14553 529.778624,131.318359 521.119727,131.318359 L515.699805,131.318359 L515.699805,155 L496.412695,155 L496.412695,83.6132812 L521.119727,83.6132812 C530.136699,83.6132812 536.907464,85.5826626 541.432227,89.5214844 C545.956989,93.4603062 548.219336,99.0592085 548.219336,106.318359 Z M515.699805,115.595703 L519.21543,115.595703 C522.11258,115.595703 524.415617,114.781909 526.124609,113.154297 C527.833602,111.526685 528.688086,109.280613 528.688086,106.416016 C528.688086,101.598283 526.018842,99.1894531 520.680274,99.1894531 L515.699805,99.1894531 L515.699805,115.595703 Z M606.30293,106.318359 C606.30293,114.29366 603.951065,120.45408 599.247266,124.799805 C594.543466,129.14553 587.862218,131.318359 579.203321,131.318359 L573.783399,131.318359 L573.783399,155 L554.496289,155 L554.496289,83.6132812 L579.203321,83.6132812 C588.220293,83.6132812 594.991058,85.5826626 599.515821,89.5214844 C604.040583,93.4603062 606.30293,99.0592085 606.30293,106.318359 Z M573.783399,115.595703 L577.299024,115.595703 C580.196174,115.595703 582.49921,114.781909 584.208203,113.154297 C585.917196,111.526685 586.77168,109.280613 586.77168,106.416016 C586.77168,101.598283 584.102436,99.1894531 578.763867,99.1894531 L573.783399,99.1894531 L573.783399,115.595703 Z M654.962696,155 L612.579883,155 L612.579883,83.6132812 L654.962696,83.6132812 L654.962696,99.0917969 L631.866992,99.0917969 L631.866992,110.322266 L653.253711,110.322266 L653.253711,125.800781 L631.866992,125.800781 L631.866992,139.277344 L654.962696,139.277344 L654.962696,155 Z M726.669336,155 L704.354883,155 L690.438868,132.685547 L676.669336,155 L654.843164,155 L678.524805,118.476562 L656.25918,83.6132812 L677.645899,83.6132812 L690.536524,105.683594 L702.938868,83.6132812 L724.960352,83.6132812 L702.35293,119.990234 L726.669336,155 Z" id="path-1"></path>
        <filter x="-1.4%" y="-7.0%" width="102.8%" height="119.5%" filterUnits="objectBoundingBox" id="filter-2">
            <feOffset dx="0" dy="2" in="SourceAlpha" result="shadowOffsetOuter1"></feOffset>
            <feGaussianBlur stdDeviation="2" in="shadowOffsetOuter1" result="shadowBlurOuter1"></feGaussianBlur>
            <feColorMatrix values="0 0 0 0 0.784313725   0 0 0 0 0.901960784   0 0 0 0 0.788235294  0 0 0 1 0" type="matrix" in="shadowBlurOuter1"></feColorMatrix>
        </filter>
    </defs>
    <g id="Page-1" stroke="none" stroke-width="1" fill="none" fill-rule="evenodd">
        <g id="Dribbble" transform="translate(-143.000000, -83.000000)">
            <g id="Logo" transform="translate(143.000000, 83.000000)">
                <polygon id="Triangle" fill="#388E3C" points="46 0 92 73 0 73"></polygon>
                <polygon id="Triangle" fill="#4CAF50" points="45.5 37 68 73 23 73"></polygon>
                <polygon id="Triangle" fill="#C8E6C9" points="46.5 54 58 73 35 73"></polygon>
            </g>
            <g id="the-appex">
                <use fill="black" fill-opacity="1" filter="url(#filter-2)" xlink:href="#path-1"></use>
                <use fill="#388E3C" fill-rule="evenodd" xlink:href="#path-1"></use>
            </g>
        </g>
    </g>
</svg>