<?xml version="1.0" encoding="UTF-8"?>
<svg width="340px" height="184px" viewBox="0 0 340 184" version="1.1" xmlns="http://www.w3.org/2000/svg" xmlns:xlink="http://www.w3.org/1999/xlink" style="background: #FFFFFF;">
    <!-- Generator: Sketch 49.3 (51167) - http://www.bohemiancoding.com/sketch -->
    <title>Logo</title>
    <desc>Created with Sketch.</desc>
    <defs></defs>
    <g id="Page-5" stroke="none" stroke-width="1" fill="none" fill-rule="evenodd">
        <g id="Artboard" transform="translate(-229.000000, -208.000000)">
            <g id="Logo" transform="translate(229.000000, 199.000000)">
                <path d="M96.5395508,109.263184 L96.5395508,137 L83.5683594,137 L83.5683594,62.3515625 L112.125488,62.3515625 C120.465374,62.3515625 127.087622,64.521951 131.992432,68.862793 C136.897241,73.203635 139.349609,78.9457651 139.349609,86.0893555 C139.349609,93.4038452 136.94851,99.0947062 132.14624,103.162109 C127.34397,107.229513 120.619184,109.263184 111.97168,109.263184 L96.5395508,109.263184 Z M96.5395508,98.8554688 L112.125488,98.8554688 C116.739769,98.8554688 120.260242,97.7702745 122.687012,95.5998535 C125.113782,93.4294325 126.327148,90.2934775 126.327148,86.1918945 C126.327148,82.1586712 125.096692,78.9372679 122.635742,76.5275879 C120.174792,74.1179079 116.791037,72.8789066 112.484375,72.8105469 L96.5395508,72.8105469 L96.5395508,98.8554688 Z M163.651367,109.263184 L163.651367,137 L150.680176,137 L150.680176,62.3515625 L179.237305,62.3515625 C187.57719,62.3515625 194.199438,64.521951 199.104248,68.862793 C204.009058,73.203635 206.461426,78.9457651 206.461426,86.0893555 C206.461426,93.4038452 204.060327,99.0947062 199.258057,103.162109 C194.455787,107.229513 187.731,109.263184 179.083496,109.263184 L163.651367,109.263184 Z M163.651367,98.8554688 L179.237305,98.8554688 C183.851586,98.8554688 187.372058,97.7702745 189.798828,95.5998535 C192.225598,93.4294325 193.438965,90.2934775 193.438965,86.1918945 C193.438965,82.1586712 192.208508,78.9372679 189.747559,76.5275879 C187.286609,74.1179079 183.902854,72.8789066 179.596191,72.8105469 L163.651367,72.8105469 L163.651367,98.8554688 Z M261.422363,103.674805 L230.763184,103.674805 L230.763184,126.643555 L266.600586,126.643555 L266.600586,137 L217.791992,137 L217.791992,62.3515625 L266.241699,62.3515625 L266.241699,72.8105469 L230.763184,72.8105469 L230.763184,93.4208984 L261.422363,93.4208984 L261.422363,103.674805 Z M302.848145,89.3193359 L318.536621,62.3515625 L333.507324,62.3515625 L310.94873,99.3681641 L334.02002,137 L318.895508,137 L302.848145,109.62207 L286.749512,137 L271.67627,137 L294.798828,99.3681641 L272.188965,62.3515625 L287.159668,62.3515625 L302.848145,89.3193359 Z" id="PPEX" fill="#388E3C"></path>
                <path d="M144.714844,13.7128906 L135.182617,13.7128906 L135.182617,40 L129.912598,40 L129.912598,13.7128906 L120.464355,13.7128906 L120.464355,9.4296875 L144.714844,9.4296875 L144.714844,13.7128906 Z M182.996582,40 L177.705566,40 L177.705566,26.4155273 L164.037109,26.4155273 L164.037109,40 L158.725098,40 L158.725098,9.4296875 L164.037109,9.4296875 L164.037109,22.1533203 L177.705566,22.1533203 L177.705566,9.4296875 L182.996582,9.4296875 L182.996582,40 Z M217.14209,26.3525391 L204.586426,26.3525391 L204.586426,35.7587891 L219.262695,35.7587891 L219.262695,40 L199.274414,40 L199.274414,9.4296875 L219.115723,9.4296875 L219.115723,13.7128906 L204.586426,13.7128906 L204.586426,22.1533203 L217.14209,22.1533203 L217.14209,26.3525391 Z" id="THE" fill="#388E3C"></path>
                <path d="M40.9767582,179.047852 C40.668814,182.309261 39.46505,184.853262 37.3654301,186.679932 C35.2658102,188.506601 32.4733577,189.419922 28.9879887,189.419922 C26.5524297,189.419922 24.4073502,188.842535 22.552686,187.687744 C20.6980218,186.532953 19.2668023,184.891775 18.2589848,182.76416 C17.2511673,180.636545 16.7262702,178.16603 16.6842778,175.352539 L16.6842778,172.49707 C16.6842778,169.613592 17.1951776,167.07309 18.2169926,164.875488 C19.2388076,162.677886 20.7050202,160.984218 22.6156743,159.794434 C24.5263283,158.604649 26.7343955,158.009766 29.2399418,158.009766 C32.6133311,158.009766 35.3287987,158.926586 37.3864262,160.760254 C39.4440537,162.593922 40.6408191,165.183414 40.9767582,168.528809 L35.6857426,168.528809 C35.4337882,166.331206 34.7934138,164.746017 33.7646,163.773193 C32.7357863,162.800369 31.227582,162.313965 29.2399418,162.313965 C26.93036,162.313965 25.1562078,163.1573 23.9174321,164.843994 C22.6786563,166.530689 22.0452805,169.004704 22.0172856,172.266113 L22.0172856,174.974609 C22.0172856,178.278011 22.6086696,180.797517 23.7914555,182.533203 C24.9742414,184.268889 26.7064018,185.136719 28.9879887,185.136719 C31.0736111,185.136719 32.6413038,184.667811 33.6911137,183.72998 C34.7409236,182.79215 35.4057933,181.231456 35.6857426,179.047852 L40.9767582,179.047852 Z M75.7193363,174.512695 C75.7193363,177.508153 75.2014378,180.136138 74.1656253,182.396729 C73.1298129,184.657319 71.6496031,186.392979 69.7249515,187.60376 C67.8003,188.814541 65.5852342,189.419922 63.0796878,189.419922 C60.6021364,189.419922 58.3940693,188.814541 56.4554203,187.60376 C54.5167712,186.392979 53.0190649,184.667817 51.9622562,182.428223 C50.9054475,180.188628 50.3700525,177.606134 50.356055,174.680664 L50.356055,172.958984 C50.356055,169.977524 50.8844514,167.34604 51.9412601,165.064453 C52.9980688,162.782866 54.4887765,161.036709 56.4134281,159.825928 C58.3380796,158.615147 60.5461467,158.009766 63.0376956,158.009766 C65.5292446,158.009766 67.7373117,158.608148 69.6619632,159.804932 C71.5866148,161.001715 73.0738232,162.723377 74.1236331,164.969971 C75.1734431,167.216564 75.7053388,169.830551 75.7193363,172.812012 L75.7193363,174.512695 Z M70.4073246,172.916992 C70.4073246,169.529605 69.7669501,166.933114 68.486182,165.127441 C67.2054139,163.321768 65.3892699,162.418945 63.0376956,162.418945 C60.7421113,162.418945 58.9469632,163.318269 57.6521976,165.116943 C56.357432,166.915618 55.6960617,169.459619 55.6680667,172.749023 L55.6680667,174.512695 C55.6680667,177.872087 56.3224385,180.468578 57.6312015,182.302246 C58.9399646,184.135914 60.7561085,185.052734 63.0796878,185.052734 C65.4312621,185.052734 67.2404074,184.15691 68.5071781,182.365234 C69.7739487,180.573559 70.4073246,177.956072 70.4073246,174.512695 L70.4073246,172.916992 Z M91.9223635,184.758789 L105.800781,184.758789 L105.800781,189 L86.6103518,189 L86.6103518,158.429688 L91.9223635,158.429688 L91.9223635,184.758789 Z M120.786035,184.758789 L134.664453,184.758789 L134.664453,189 L115.474024,189 L115.474024,158.429688 L120.786035,158.429688 L120.786035,184.758789 Z M162.205371,175.352539 L149.649707,175.352539 L149.649707,184.758789 L164.325977,184.758789 L164.325977,189 L144.337695,189 L144.337695,158.429688 L164.179004,158.429688 L164.179004,162.712891 L149.649707,162.712891 L149.649707,171.15332 L162.205371,171.15332 L162.205371,175.352539 Z M197.577832,179.047852 C197.269888,182.309261 196.066124,184.853262 193.966504,186.679932 C191.866884,188.506601 189.074431,189.419922 185.589062,189.419922 C183.153503,189.419922 181.008424,188.842535 179.15376,187.687744 C177.299095,186.532953 175.867876,184.891775 174.860059,182.76416 C173.852241,180.636545 173.327344,178.16603 173.285352,175.352539 L173.285352,172.49707 C173.285352,169.613592 173.796251,167.07309 174.818066,164.875488 C175.839881,162.677886 177.306094,160.984218 179.216748,159.794434 C181.127402,158.604649 183.335469,158.009766 185.841016,158.009766 C189.214405,158.009766 191.929872,158.926586 193.9875,160.760254 C196.045127,162.593922 197.241893,165.183414 197.577832,168.528809 L192.286816,168.528809 C192.034862,166.331206 191.394488,164.746017 190.365674,163.773193 C189.33686,162.800369 187.828656,162.313965 185.841016,162.313965 C183.531434,162.313965 181.757282,163.1573 180.518506,164.843994 C179.27973,166.530689 178.646354,169.004704 178.618359,172.266113 L178.618359,174.974609 C178.618359,178.278011 179.209743,180.797517 180.392529,182.533203 C181.575315,184.268889 183.307476,185.136719 185.589062,185.136719 C187.674685,185.136719 189.242378,184.667811 190.292187,183.72998 C191.341997,182.79215 192.006867,181.231456 192.286816,179.047852 L197.577832,179.047852 Z M229.401953,162.712891 L219.869726,162.712891 L219.869726,189 L214.599707,189 L214.599707,162.712891 L205.151465,162.712891 L205.151465,158.429688 L229.401953,158.429688 L229.401953,162.712891 Z M244.618164,189 L239.327148,189 L239.327148,158.429688 L244.618164,158.429688 L244.618164,189 Z M281.14541,174.512695 C281.14541,177.508153 280.627511,180.136138 279.591699,182.396729 C278.555886,184.657319 277.075677,186.392979 275.151025,187.60376 C273.226374,188.814541 271.011308,189.419922 268.505761,189.419922 C266.02821,189.419922 263.820143,188.814541 261.881494,187.60376 C259.942845,186.392979 258.445138,184.667817 257.38833,182.428223 C256.331521,180.188628 255.796126,177.606134 255.782129,174.680664 L255.782129,172.958984 C255.782129,169.977524 256.310525,167.34604 257.367334,165.064453 C258.424142,162.782866 259.91485,161.036709 261.839502,159.825928 C263.764153,158.615147 265.97222,158.009766 268.463769,158.009766 C270.955318,158.009766 273.163385,158.608148 275.088037,159.804932 C277.012688,161.001715 278.499897,162.723377 279.549707,164.969971 C280.599517,167.216564 281.131412,169.830551 281.14541,172.812012 L281.14541,174.512695 Z M275.833398,172.916992 C275.833398,169.529605 275.193024,166.933114 273.912256,165.127441 C272.631487,163.321768 270.815343,162.418945 268.463769,162.418945 C266.168185,162.418945 264.373037,163.318269 263.078271,165.116943 C261.783506,166.915618 261.122135,169.459619 261.09414,172.749023 L261.09414,174.512695 C261.09414,177.872087 261.748512,180.468578 263.057275,182.302246 C264.366038,184.135914 266.182182,185.052734 268.505761,185.052734 C270.857336,185.052734 272.666481,184.15691 273.933252,182.365234 C275.200022,180.573559 275.833398,177.956072 275.833398,174.512695 L275.833398,172.916992 Z M316.286914,189 L310.974902,189 L297.348437,167.311035 L297.348437,189 L292.036425,189 L292.036425,158.429688 L297.348437,158.429688 L311.016894,180.202637 L311.016894,158.429688 L316.286914,158.429688 L316.286914,189 Z" id="COLLECTION" fill="#388E3C"></path>
                <polygon id="Triangle" fill="#388E3C" points="39.4736842 62 78.9473684 137 0 137"></polygon>
                <polygon id="Triangle" fill="#4CAF50" points="40 99 60 137 20 137"></polygon>
                <polygon id="Triangle" fill="#C8E6C9" points="40 118 50 137 30 137"></polygon>
            </g>
        </g>
    </g>
</svg>