<?xml version="1.0" encoding="UTF-8"?>
<svg width="340px" height="184px" viewBox="0 0 340 184" version="1.1" xmlns="http://www.w3.org/2000/svg" xmlns:xlink="http://www.w3.org/1999/xlink" style="background: #FFFFFF;">
    <!-- Generator: Sketch 49.3 (51167) - http://www.bohemiancoding.com/sketch -->
    <title>Logo</title>
    <desc>Created with Sketch.</desc>
    <defs></defs>
    <g id="Page-5" stroke="none" stroke-width="1" fill="none" fill-rule="evenodd">
        <g id="Artboard" transform="translate(-229.000000, -208.000000)">
            <g id="Logo" transform="translate(229.000000, 199.000000)">
                <path d="M96.5395508,109.263184 L96.5395508,137 L83.5683594,137 L83.5683594,62.3515625 L112.125488,62.3515625 C120.465374,62.3515625 127.087622,64.521951 131.992432,68.862793 C136.897241,73.203635 139.349609,78.9457651 139.349609,86.0893555 C139.349609,93.4038452 136.94851,99.0947062 132.14624,103.162109 C127.34397,107.229513 120.619184,109.263184 111.97168,109.263184 L96.5395508,109.263184 Z M96.5395508,98.8554688 L112.125488,98.8554688 C116.739769,98.8554688 120.260242,97.7702745 122.687012,95.5998535 C125.113782,93.4294325 126.327148,90.2934775 126.327148,86.1918945 C126.327148,82.1586712 125.096692,78.9372679 122.635742,76.5275879 C120.174792,74.1179079 116.791037,72.8789066 112.484375,72.8105469 L96.5395508,72.8105469 L96.5395508,98.8554688 Z M163.651367,109.263184 L163.651367,137 L150.680176,137 L150.680176,62.3515625 L179.237305,62.3515625 C187.57719,62.3515625 194.199438,64.521951 199.104248,68.862793 C204.009058,73.203635 206.461426,78.9457651 206.461426,86.0893555 C206.461426,93.4038452 204.060327,99.0947062 199.258057,103.162109 C194.455787,107.229513 187.731,109.263184 179.083496,109.263184 L163.651367,109.263184 Z M163.651367,98.8554688 L179.237305,98.8554688 C183.851586,98.8554688 187.372058,97.7702745 189.798828,95.5998535 C192.225598,93.4294325 193.438965,90.2934775 193.438965,86.1918945 C193.438965,82.1586712 192.208508,78.9372679 189.747559,76.5275879 C187.286609,74.1179079 183.902854,72.8789066 179.596191,72.8105469 L163.651367,72.8105469 L163.651367,98.8554688 Z M261.422363,103.674805 L230.763184,103.674805 L230.763184,126.643555 L266.600586,126.643555 L266.600586,137 L217.791992,137 L217.791992,62.3515625 L266.241699,62.3515625 L266.241699,72.8105469 L230.763184,72.8105469 L230.763184,93.4208984 L261.422363,93.4208984 L261.422363,103.674805 Z M302.848145,89.3193359 L318.536621,62.3515625 L333.507324,62.3515625 L310.94873,99.3681641 L334.02002,137 L318.895508,137 L302.848145,109.62207 L286.749512,137 L271.67627,137 L294.798828,99.3681641 L272.188965,62.3515625 L287.159668,62.3515625 L302.848145,89.3193359 Z" id="PPEX" fill="#388E3C"></path>
                <path d="M144.714844,13.7128906 L135.182617,13.7128906 L135.182617,40 L129.912598,40 L129.912598,13.7128906 L120.464355,13.7128906 L120.464355,9.4296875 L144.714844,9.4296875 L144.714844,13.7128906 Z M182.996582,40 L177.705566,40 L177.705566,26.4155273 L164.037109,26.4155273 L164.037109,40 L158.725098,40 L158.725098,9.4296875 L164.037109,9.4296875 L164.037109,22.1533203 L177.705566,22.1533203 L177.705566,9.4296875 L182.996582,9.4296875 L182.996582,40 Z M217.14209,26.3525391 L204.586426,26.3525391 L204.586426,35.7587891 L219.262695,35.7587891 L219.262695,40 L199.274414,40 L199.274414,9.4296875 L219.115723,9.4296875 L219.115723,13.7128906 L204.586426,13.7128906 L204.586426,22.1533203 L217.14209,22.1533203 L217.14209,26.3525391 Z" id="THE" fill="#388E3C"></path>
                <path d="M28.7387695,177.641113 L28.7387695,189 L23.4267578,189 L23.4267578,158.429688 L35.121582,158.429688 C38.5369637,158.429688 41.248932,159.318513 43.2575684,161.096191 C45.2662047,162.87387 46.2705078,165.225409 46.2705078,168.150879 C46.2705078,171.146337 45.2872006,173.47688 43.3205566,175.142578 C41.3539127,176.808277 38.5999526,177.641113 35.0585938,177.641113 L28.7387695,177.641113 Z M28.7387695,173.378906 L35.121582,173.378906 C37.0112399,173.378906 38.4529573,172.934493 39.4467773,172.045654 C40.4405974,171.156815 40.9375,169.872567 40.9375,168.192871 C40.9375,166.54117 40.4335988,165.221929 39.4257812,164.235107 C38.4179637,163.248286 37.0322354,162.740886 35.2685547,162.712891 L28.7387695,162.712891 L28.7387695,173.378906 Z M79.1435547,177.221191 L73.2226562,177.221191 L73.2226562,189 L67.9106445,189 L67.9106445,158.429688 L78.6606445,158.429688 C82.1880059,158.429688 84.9104722,159.220532 86.828125,160.802246 C88.7457778,162.38396 89.7045898,164.672511 89.7045898,167.667969 C89.7045898,169.711599 89.2111866,171.422763 88.2243652,172.801514 C87.2375439,174.180264 85.8623135,175.240556 84.0986328,175.982422 L90.9643555,188.727051 L90.9643555,189 L85.2744141,189 L79.1435547,177.221191 Z M73.2226562,172.958984 L78.6816406,172.958984 C80.4733162,172.958984 81.8730418,172.507573 82.8808594,171.604736 C83.8886769,170.7019 84.3925781,169.466642 84.3925781,167.898926 C84.3925781,166.261222 83.9271694,164.994471 82.9963379,164.098633 C82.0655064,163.202795 80.6762788,162.740886 78.8286133,162.712891 L73.2226562,162.712891 L73.2226562,172.958984 Z M136.141113,174.512695 C136.141113,177.508153 135.623215,180.136138 134.587402,182.396729 C133.55159,184.657319 132.07138,186.392979 130.146729,187.60376 C128.222077,188.814541 126.007011,189.419922 123.501465,189.419922 C121.023913,189.419922 118.815846,188.814541 116.877197,187.60376 C114.938548,186.392979 113.440842,184.667817 112.384033,182.428223 C111.327225,180.188628 110.791829,177.606134 110.777832,174.680664 L110.777832,172.958984 C110.777832,169.977524 111.306228,167.34604 112.363037,165.064453 C113.419846,162.782866 114.910554,161.036709 116.835205,159.825928 C118.759857,158.615147 120.967924,158.009766 123.459473,158.009766 C125.951022,158.009766 128.159089,158.608148 130.08374,159.804932 C132.008392,161.001715 133.4956,162.723377 134.54541,164.969971 C135.59522,167.216564 136.127116,169.830551 136.141113,172.812012 L136.141113,174.512695 Z M130.829102,172.916992 C130.829102,169.529605 130.188727,166.933114 128.907959,165.127441 C127.627191,163.321768 125.811047,162.418945 123.459473,162.418945 C121.163888,162.418945 119.36874,163.318269 118.073975,165.116943 C116.779209,166.915618 116.117839,169.459619 116.089844,172.749023 L116.089844,174.512695 C116.089844,177.872087 116.744215,180.468578 118.052979,182.302246 C119.361742,184.135914 121.177886,185.052734 123.501465,185.052734 C125.853039,185.052734 127.662184,184.15691 128.928955,182.365234 C130.195726,180.573559 130.829102,177.956072 130.829102,174.512695 L130.829102,172.916992 Z M170.945801,158.429688 L176.236816,158.429688 L176.236816,179.866699 C176.236816,182.79217 175.323495,185.115714 173.496826,186.837402 C171.670157,188.559091 169.25913,189.419922 166.263672,189.419922 C163.07225,189.419922 160.608733,188.61508 158.873047,187.005371 C157.137361,185.395663 156.269531,183.156102 156.269531,180.286621 L161.560547,180.286621 C161.560547,181.910327 161.962968,183.131588 162.767822,183.950439 C163.572677,184.769291 164.737948,185.178711 166.263672,185.178711 C167.691413,185.178711 168.82869,184.706304 169.675537,183.761475 C170.522384,182.816646 170.945801,181.511402 170.945801,179.845703 L170.945801,158.429688 Z M217.172363,175.352539 L204.616699,175.352539 L204.616699,184.758789 L219.292969,184.758789 L219.292969,189 L199.304687,189 L199.304687,158.429688 L219.145996,158.429688 L219.145996,162.712891 L204.616699,162.712891 L204.616699,171.15332 L217.172363,171.15332 L217.172363,175.352539 Z M263.944824,179.047852 C263.63688,182.309261 262.433116,184.853262 260.333496,186.679932 C258.233876,188.506601 255.441424,189.419922 251.956055,189.419922 C249.520496,189.419922 247.375416,188.842535 245.520752,187.687744 C243.666088,186.532953 242.234868,184.891775 241.227051,182.76416 C240.219233,180.636545 239.694336,178.16603 239.652344,175.352539 L239.652344,172.49707 C239.652344,169.613592 240.163244,167.07309 241.185059,164.875488 C242.206874,162.677886 243.673086,160.984218 245.58374,159.794434 C247.494394,158.604649 249.702461,158.009766 252.208008,158.009766 C255.581397,158.009766 258.296865,158.926586 260.354492,160.760254 C262.41212,162.593922 263.608885,165.183414 263.944824,168.528809 L258.653809,168.528809 C258.401854,166.331206 257.76148,164.746017 256.732666,163.773193 C255.703852,162.800369 254.195648,162.313965 252.208008,162.313965 C249.898426,162.313965 248.124274,163.1573 246.885498,164.843994 C245.646722,166.530689 245.013346,169.004704 244.985352,172.266113 L244.985352,174.974609 C244.985352,178.278011 245.576736,180.797517 246.759521,182.533203 C247.942307,184.268889 249.674468,185.136719 251.956055,185.136719 C254.041677,185.136719 255.60937,184.667811 256.65918,183.72998 C257.70899,182.79215 258.373859,181.231456 258.653809,179.047852 L263.944824,179.047852 Z M307.777832,162.712891 L298.245605,162.712891 L298.245605,189 L292.975586,189 L292.975586,162.712891 L283.527344,162.712891 L283.527344,158.429688 L307.777832,158.429688 L307.777832,162.712891 Z" id="PROJECT" fill="#388E3C"></path>
                <polygon id="Triangle" fill="#388E3C" points="39.4736842 62 78.9473684 137 0 137"></polygon>
                <polygon id="Triangle" fill="#4CAF50" points="40 99 60 137 20 137"></polygon>
                <polygon id="Triangle" fill="#C8E6C9" points="40 118 50 137 30 137"></polygon>
            </g>
        </g>
    </g>
</svg>