<?xml version="1.0" encoding="UTF-8"?>
<svg width="235px" height="183px" viewBox="0 0 235 183" version="1.1" xmlns="http://www.w3.org/2000/svg" xmlns:xlink="http://www.w3.org/1999/xlink">
    <!-- Generator: Sketch 49.1 (51147) - http://www.bohemiancoding.com/sketch -->
    <title>Slice 1</title>
    <desc>Created with Sketch.</desc>
    <defs></defs>
    <g id="Page-1" stroke="none" stroke-width="1" fill="none" fill-rule="evenodd">
        <g id="mobile-phone" transform="translate(1.000000, 1.000000)">
            <polygon id="Shape" stroke="#388E3C" stroke-width="2" fill="#FFFFFF" fill-rule="nonzero" stroke-linecap="round" stroke-linejoin="round" points="11 69 54 69 54 112 11 112"></polygon>
            <polygon id="Shape" stroke="#388E3C" stroke-width="2" fill="#FFFFFF" fill-rule="nonzero" stroke-linecap="round" stroke-linejoin="round" points="141.016835 107 131 96.983165 155.983165 72 164.350168 73.6498316 166 82.016835"></polygon>
            <polygon id="Shape" fill="#FFFFFF" fill-rule="nonzero" points="93 47 145 47 145 142 93 142"></polygon>
            <g id="Group" stroke-linejoin="round" stroke="#388E3C" stroke-width="2">
                <polygon id="Shape" fill="#C8E6C9" fill-rule="nonzero" stroke-linecap="round" points="85.1937173 19.1647059 85.0753927 6.15163399 73.0062827 12.7764706"></polygon>
                <polygon id="Shape" fill="#C8E6C9" fill-rule="nonzero" stroke-linecap="round" points="196.300524 53.8267974 198.903665 46.2555556 190.502618 47.6751634"></polygon>
                <polygon id="Shape" fill="#C8E6C9" fill-rule="nonzero" stroke-linecap="round" points="58.9256545 159.587582 61.5287958 152.01634 53.1277487 153.435948"></polygon>
                <polygon id="Shape" fill="#C8E6C9" fill-rule="nonzero" stroke-linecap="round" points="123.294241 26.972549 127.198953 19.9928105 118.679581 19.8745098"></polygon>
                <polyline id="Shape" stroke-linecap="round" points="42.5968586 25.3163399 45.791623 30.2849673 51.4712042 28.6287582 54.6659686 33.5973856 60.3455497 31.9411765 63.5403141 36.9098039"></polyline>
                <polyline id="Shape" stroke-linecap="round" points="174.410471 146.456209 176.42199 152.01634 182.33822 151.779739 184.231414 157.339869 190.147644 157.103268 192.040838 162.663399"></polyline>
                <polyline id="Shape" stroke-linecap="round" points="22.8366492 143.853595 28.634555 144.918301 31.2376963 139.594771 37.0356021 140.659477 39.7570681 135.335948 45.5549738 136.400654"></polyline>
                <polyline id="Shape" stroke-linecap="round" points="190.384293 25.3163399 187.189529 30.2849673 181.509948 28.6287582 178.315183 33.5973856 172.635602 31.9411765 169.322513 36.9098039"></polyline>
                <polygon id="Shape" points="123.057592 133.91634 119.507853 136.282353 115.958115 133.91634 115.958115 130.36732 119.507853 128.001307 123.057592 130.36732"></polygon>
                <polygon id="Shape" fill="#C8E6C9" fill-rule="nonzero" points="153.940314 8.1627451 149.680628 7.33464052 148.852356 3.07581699 151.337173 0.591503268 155.596859 1.41960784 156.425131 5.56013072"></polygon>
                <polygon id="Shape" fill="#C8E6C9" fill-rule="nonzero" points="202.571728 147.284314 198.430366 146.456209 197.602094 142.315686 200.086911 139.713072 204.346597 140.541176 205.174869 144.8"></polygon>
                <path d="M10.6492147,179.22549 L216.534031,179.22549" id="Shape" stroke-linecap="round"></path>
                <path d="M222.450262,179.22549 L226,179.22549" id="Shape" stroke-linecap="round"></path>
                <path d="M0,179.22549 L3.54973822,179.22549" id="Shape" stroke-linecap="round"></path>
            </g>
            <polygon id="Shape" fill="#C8E6C9" fill-rule="nonzero" points="145 47 145 122 93 122"></polygon>
            <polygon id="Shape" stroke="#388E3C" stroke-width="2" stroke-linecap="round" stroke-linejoin="round" points="93 47 145 47 145 142 93 142"></polygon>
            <path d="M93,122 L145,122" id="Shape" stroke="#388E3C" stroke-width="2" stroke-linecap="round" stroke-linejoin="round"></path>
            <polygon id="Shape" fill="#FFFFFF" fill-rule="nonzero" points="133.070175 179 133.070175 163.262626 146 144.330447 144.824561 142.318903 106.035088 142.318903 106.035088 134.864358 93.1052632 126.58153 93.1052632 102.324675 86.0526316 97 79 102.916306 79 138.414141 93.1052632 157.34632 93.1052632 179"></polygon>
            <polygon id="Shape" stroke="#388E3C" stroke-width="2" fill="#FFFFFF" fill-rule="nonzero" stroke-linecap="round" stroke-linejoin="round" points="155.642857 106 158 113 155.642857 120 128.535714 120 125 113 128.535714 106"></polygon>
            <polygon id="Shape" stroke="#388E3C" stroke-width="2" fill="#FFFFFF" fill-rule="nonzero" stroke-linecap="round" stroke-linejoin="round" points="153.666667 121 156 128 153.666667 135 131.5 135 128 128 131.5 121"></polygon>
            <polyline id="Shape" stroke="#388E3C" stroke-width="2" fill="#C8E6C9" fill-rule="nonzero" stroke-linecap="round" stroke-linejoin="round" points="27 98 20 98 20 106 27 103.714286"></polyline>
            <polyline id="Shape" stroke="#388E3C" stroke-width="2" fill="#C8E6C9" fill-rule="nonzero" stroke-linecap="round" stroke-linejoin="round" points="44 91 37 91 37 99 44 96.7142857"></polyline>
            <polyline id="Shape" stroke="#388E3C" stroke-width="2" stroke-linecap="round" stroke-linejoin="round" points="27 103 27 81.8695652 44 76 44 95.9565217"></polyline>
            <polyline id="Shape" stroke="#388E3C" stroke-width="2" stroke-linecap="round" stroke-linejoin="round" points="59 82 59 117 24 117"></polyline>
            <polygon id="Shape" fill="#FFFFFF" fill-rule="nonzero" points="233 107.925926 192.52381 107.925926 183 118 183 70 233 70"></polygon>
            <polygon id="Shape" fill="#C8E6C9" fill-rule="nonzero" points="199 79 199 83.9230769 194.5 87 190 83.9230769"></polygon>
            <polygon id="Shape" fill="#C8E6C9" fill-rule="nonzero" points="190.142857 104 183 111.8 183 119 192.52381 108.8 233 108.8 233 104"></polygon>
            <polygon id="Shape" fill="#C8E6C9" fill-rule="nonzero" points="219.933333 84 214.333333 97.8095238 208.5 94.2380952 205 99 226 99"></polygon>
            <polygon id="Shape" stroke="#388E3C" stroke-width="2" stroke-linecap="round" stroke-linejoin="round" points="233 107.925926 192.52381 107.925926 183 118 183 70 233 70"></polygon>
            <polygon id="Shape" stroke="#388E3C" stroke-width="2" stroke-linecap="round" stroke-linejoin="round" points="199 83.9444444 194.5 87 190 83.9444444 190 79.0555556 194.5 76 199 79.0555556"></polygon>
            <polygon id="Shape" stroke="#388E3C" stroke-width="2" stroke-linecap="round" stroke-linejoin="round" points="217.782609 79 211.913043 93.1176471 206.043478 89.5882353 199 99 226 99"></polygon>
            <path d="M193,99 L228,99" id="Shape" stroke="#388E3C" stroke-width="2" stroke-linecap="round" stroke-linejoin="round"></path>
            <polygon id="Shape" stroke="#388E3C" stroke-width="2" stroke-linecap="round" stroke-linejoin="round" points="217.782609 79 211.913043 93.1176471 206.043478 89.5882353 199 99 226 99"></polygon>
            <polygon id="Shape" fill="#C8E6C9" fill-rule="nonzero" points="106 150 106 143 129.713043 143 133 150"></polygon>
            <path d="M106,148 L106,143" id="Shape" stroke="#388E3C" stroke-width="2" fill="#C8E6C9" fill-rule="nonzero" stroke-linecap="round" stroke-linejoin="round"></path>
            <polygon id="Shape" stroke="#388E3C" stroke-width="2" stroke-linecap="round" stroke-linejoin="round" points="133.070175 179 133.070175 163.262626 146 144.330447 144.824561 142.318903 106.035088 142.318903 106.035088 134.864358 93.1052632 126.58153 93.1052632 102.324675 86.0526316 97 79 102.916306 79 138.414141 93.1052632 157.34632 93.1052632 179"></polygon>
            <polygon id="Shape" stroke="#388E3C" stroke-width="2" fill="#FFFFFF" fill-rule="nonzero" stroke-linecap="round" stroke-linejoin="round" points="151.6 135 154 142 151.6 149 133.6 149 130 142 133.6 135"></polygon>
        </g>
    </g>
</svg>