<?xml version="1.0" encoding="UTF-8"?>
<svg width="919px" height="711px" viewBox="0 0 919 711" version="1.1" xmlns="http://www.w3.org/2000/svg" xmlns:xlink="http://www.w3.org/1999/xlink">
    <!-- Generator: Sketch 49.1 (51147) - http://www.bohemiancoding.com/sketch -->
    <title>Slice 1</title>
    <desc>Created with Sketch.</desc>
    <defs>
        <linearGradient x1="10.8549605%" y1="101.74029%" x2="89.1461511%" y2="-1.73567835%" id="linearGradient-1">
            <stop stop-color="#808080" stop-opacity="0.25" offset="0%"></stop>
            <stop stop-color="#808080" stop-opacity="0.12" offset="54%"></stop>
            <stop stop-color="#808080" stop-opacity="0.1" offset="100%"></stop>
        </linearGradient>
        <path d="M622.491133,631.376911 L305.97482,631.384451 C302.526116,631.384525 299.221668,631.397993 296.788421,631.421892 C294.355174,631.445791 292.992449,631.478163 293.000031,631.511887 L294.437444,637.300505 C294.445007,637.334245 295.823567,637.366573 298.269585,637.39037 C300.715604,637.414167 304.028516,637.427482 307.478868,637.427383 L623.995181,637.419843 C627.443885,637.419769 630.748334,637.406301 633.18158,637.382402 C635.614827,637.358503 636.977552,637.326131 636.96997,637.292407 L635.542077,631.503788 C635.534518,631.470032 634.154651,631.43769 631.706571,631.413891 C629.258492,631.390091 625.943131,631.376787 622.491133,631.376911 Z" id="path-2"></path>
        <filter x="-2.9%" y="-247.9%" width="105.8%" height="430.6%" filterUnits="objectBoundingBox" id="filter-3">
            <feOffset dx="0" dy="-5" in="SourceAlpha" result="shadowOffsetOuter1"></feOffset>
            <feGaussianBlur stdDeviation="2.5" in="shadowOffsetOuter1" result="shadowBlurOuter1"></feGaussianBlur>
            <feColorMatrix values="0 0 0 0 0.501960784   0 0 0 0 0.501960784   0 0 0 0 0.501960784  0 0 0 0.18115942 0" type="matrix" in="shadowBlurOuter1"></feColorMatrix>
        </filter>
        <linearGradient x1="50%" y1="25.6051301%" x2="50%" y2="100%" id="linearGradient-4">
            <stop stop-color="#69C16F" offset="0%"></stop>
            <stop stop-color="#388E3C" stop-opacity="0.125084918" offset="100%"></stop>
        </linearGradient>
        <linearGradient x1="71619%" y1="37464%" x2="71619%" y2="30223%" id="linearGradient-5">
            <stop stop-color="#808080" stop-opacity="0.25" offset="0%"></stop>
            <stop stop-color="#808080" stop-opacity="0.12" offset="54%"></stop>
            <stop stop-color="#808080" stop-opacity="0.1" offset="100%"></stop>
        </linearGradient>
        <linearGradient x1="80896%" y1="80135%" x2="80896%" y2="25882%" id="linearGradient-6">
            <stop stop-color="#808080" stop-opacity="0.25" offset="0%"></stop>
            <stop stop-color="#808080" stop-opacity="0.12" offset="54%"></stop>
            <stop stop-color="#808080" stop-opacity="0.1" offset="100%"></stop>
        </linearGradient>
    </defs>
    <g id="Page-1" stroke="none" stroke-width="1" fill="none" fill-rule="evenodd">
        <g id="undraw_mobile_apps">
            <path d="M213.11,582.49 C225.42,583.3 238.43,587.57 249.63,582.4 C252.52,581.07 255.14,579.15 258.14,578.08 C265.03,575.62 272.6,578.01 279.54,580.31 C333.871808,598.293415 389.719552,611.323216 446.4,619.24 C458.08,620.87 470.27,622.24 481.4,618.44 C489.54,615.67 496.59,610.32 504.65,607.32 C517.83,602.43 532.39,604.25 546.42,605.02 C583.168217,607.022696 619.934472,601.422651 654.42,588.57 L656.23,587.88 C673.648037,581.153074 693.295796,583.793394 708.32,594.88 C714.179908,599.178103 720.395774,602.96851 726.9,606.21 C748.771173,617.237852 757.89693,643.666648 747.49,665.84 L747.25,666.36 C741.53,678.83 736.76,692.79 725.55,700.71 C714.98,708.18 701.11,708.49 688.17,708.52 L608.74,708.71 C600.5,708.71 592.16,708.71 584.16,706.77 C576.97,705 570.28,701.68 563.65,698.38 L528.11,680.75 C513.8,673.64 498.11,666.32 482.45,669.59 C466.45,672.93 454.92,686.38 440.98,694.86 C419.35,708.03 390.59,708.55 368.5,696.15 C357.92,690.21 348.73,681.55 337.19,677.82 C318.13,671.65 297.88,680.19 278.27,684.28 C240.11,692.24 195.16,681.35 165.92,655.02 C128.26,621.1 172.48,579.83 213.11,582.49 Z" id="Shape" fill="#F0E4E4" fill-rule="nonzero"></path>
            <path d="M68.8,631.13 C68.8,631.13 39.69,532.35 74.26,459.57 C88.77,429.04 93.59,394.77 86.88,361.64 C83.675705,345.915265 79.0362825,330.517471 73.02,315.64" id="Shape" stroke="#535461" stroke-width="2"></path>
            <path d="M94.52,269.71 C94.52,281.82 72.59,316.94 72.59,316.94 C72.59,316.94 50.66,281.82 50.66,269.71 C50.66,257.598395 60.4783954,247.78 72.59,247.78 C84.7016046,247.78 94.52,257.598395 94.52,269.71 Z" id="Shape" fill="#388E3C" fill-rule="nonzero"></path>
            <path d="M130.77,336.8 C124.19,346.97 86.69,364.53 86.69,364.53 C86.69,364.53 87.37,323.13 93.95,312.96 C98.2086058,306.38274 105.652646,302.577041 113.478023,302.976472 C121.3034,303.375903 128.321252,307.919782 131.888023,314.896472 C135.454794,321.873163 135.028606,330.22274 130.77,336.8 Z" id="Shape" fill="#388E3C" fill-rule="nonzero"></path>
            <path d="M129.19,451.44 C118.38,456.89 77.19,453.13 77.19,453.13 C77.19,453.13 98.68,417.73 109.49,412.28 C116.494501,408.674392 124.894782,409.102945 131.495981,413.402668 C138.09718,417.702391 141.884845,425.212515 141.418421,433.076731 C140.951997,440.940947 136.303163,447.950706 129.24,451.44 L129.19,451.44 Z" id="Shape" fill="#388E3C" fill-rule="nonzero"></path>
            <path d="M108.46,537.92 C98.72,545.12 57.46,548.38 57.46,548.38 C57.46,548.38 72.66,509.86 82.39,502.66 C92.1299029,495.63144 105.711527,497.745689 112.854047,507.402333 C119.996567,517.058976 118.042051,530.664505 108.47,537.92 L108.46,537.92 Z" id="Shape" fill="#388E3C" fill-rule="nonzero"></path>
            <path d="M40.65,366.87 C49.34,375.31 89.81,384.05 89.81,384.05 C89.81,384.05 79.9,343.85 71.21,335.41 C62.5105017,327.048829 48.6907423,327.286128 40.2834275,335.941041 C31.8761127,344.595953 32.0399183,358.416779 40.65,366.87 Z" id="Shape" fill="#388E3C" fill-rule="nonzero"></path>
            <path d="M17.68,468.35 C28.49,473.8 69.68,470.04 69.68,470.04 C69.68,470.04 48.19,434.64 37.38,429.19 C26.6425216,424.226284 13.9032845,428.673095 8.58717853,439.240542 C3.27107256,449.807989 7.29414508,462.68732 17.68,468.35 Z" id="Shape" fill="#388E3C" fill-rule="nonzero"></path>
            <path d="M8.89,569.97 C18.63,577.17 59.89,580.43 59.89,580.43 C59.89,580.43 44.69,541.91 34.96,534.71 C25.2200971,527.68144 11.6384734,529.795689 4.49595321,539.452333 C-2.64656702,549.108976 -0.692050809,562.714505 8.88,569.97 L8.89,569.97 Z" id="Shape" fill="#388E3C" fill-rule="nonzero"></path>
            <path d="M94.52,269.71 C94.52,281.82 72.59,316.94 72.59,316.94 C72.59,316.94 50.66,281.82 50.66,269.71 C50.66,257.598395 60.4783954,247.78 72.59,247.78 C84.7016046,247.78 94.52,257.598395 94.52,269.71 Z" id="Shape" fill="#000000" fill-rule="nonzero" opacity="0.25"></path>
            <path d="M130.77,336.8 C124.19,346.97 86.69,364.53 86.69,364.53 C86.69,364.53 87.37,323.13 93.95,312.96 C98.2086058,306.38274 105.652646,302.577041 113.478023,302.976472 C121.3034,303.375903 128.321252,307.919782 131.888023,314.896472 C135.454794,321.873163 135.028606,330.22274 130.77,336.8 Z" id="Shape" fill="#000000" fill-rule="nonzero" opacity="0.25"></path>
            <path d="M129.19,451.44 C118.38,456.89 77.19,453.13 77.19,453.13 C77.19,453.13 98.68,417.73 109.49,412.28 C116.494501,408.674392 124.894782,409.102945 131.495981,413.402668 C138.09718,417.702391 141.884845,425.212515 141.418421,433.076731 C140.951997,440.940947 136.303163,447.950706 129.24,451.44 L129.19,451.44 Z" id="Shape" fill="#000000" fill-rule="nonzero" opacity="0.25"></path>
            <path d="M108.46,537.92 C98.72,545.12 57.46,548.38 57.46,548.38 C57.46,548.38 72.66,509.86 82.39,502.66 C92.1299029,495.63144 105.711527,497.745689 112.854047,507.402333 C119.996567,517.058976 118.042051,530.664505 108.47,537.92 L108.46,537.92 Z" id="Shape" fill="#000000" fill-rule="nonzero" opacity="0.25"></path>
            <path d="M40.65,366.87 C49.34,375.31 89.81,384.05 89.81,384.05 C89.81,384.05 79.9,343.85 71.21,335.41 C62.5105017,327.048829 48.6907423,327.286128 40.2834275,335.941041 C31.8761127,344.595953 32.0399183,358.416779 40.65,366.87 Z" id="Shape" fill="#000000" fill-rule="nonzero" opacity="0.25"></path>
            <path d="M17.68,468.35 C28.49,473.8 69.68,470.04 69.68,470.04 C69.68,470.04 48.19,434.64 37.38,429.19 C26.6425216,424.226284 13.9032845,428.673095 8.58717853,439.240542 C3.27107256,449.807989 7.29414508,462.68732 17.68,468.35 Z" id="Shape" fill="#000000" fill-rule="nonzero" opacity="0.25"></path>
            <path d="M8.89,569.97 C18.63,577.17 59.89,580.43 59.89,580.43 C59.89,580.43 44.69,541.91 34.96,534.71 C25.2200971,527.68144 11.6384734,529.795689 4.49595321,539.452333 C-2.64656702,549.108976 -0.692050809,562.714505 8.88,569.97 L8.89,569.97 Z" id="Shape" fill="#000000" fill-rule="nonzero" opacity="0.25"></path>
            <path d="M599.52,357.27 C595.82,328.27 607.41,298.42 600.52,270.03 C595.22,248.1 579.52,229.79 574.36,207.82 C566.78,175.26 584.12,141.82 606.25,116.82 C621.47,99.59 640.57,83.95 663.34,80.82 C677.4,78.82 691.85,81.91 704.83,87.64 C731.512478,99.6028343 752.016855,122.125045 761.43,149.81 C764.43,158.71 766.16,168.02 769.85,176.65 C776.2,191.52 787.85,203.52 795.1,217.98 C804.870448,237.786376 805.83623,260.794497 797.76,281.35 C789.37,302.29 771.76,319.81 769.16,342.22 C767.27,358.37 773.33,376.06 765.46,390.29 C759.52,401.03 747.29,406.45 735.71,410.51 C708.77,419.91 671.11,435.11 644.11,420.64 C620.49,407.99 602.94,384.04 599.52,357.27 Z" id="Shape" fill="#388E3C" fill-rule="nonzero"></path>
            <path d="M675.11,377.88 C675.11,377.88 714.77,361.88 719.77,352.88 C724.77,343.88 731.77,290.88 731.77,290.88" id="Shape" stroke="#333333" stroke-width="3"></path>
            <path d="M674.73,622.9 L674.73,277.9" id="Shape" stroke="#333333" stroke-width="3"></path>
            <g id="Group" opacity="0.5" transform="translate(281.000000, 0.000000)" fill="url(#linearGradient-1)" fill-rule="nonzero">
                <path d="M346.4,9.40195869e-05 L13.9,0.830057826 C10.2771401,0.838201476 6.80582122,2.3206626 4.2496985,4.95131478 C1.69357577,7.58196695 0.262034762,11.1453194 0.27,14.8574708 L1.78,652.034006 C1.78794477,655.747937 3.23612042,659.306369 5.80565984,661.925786 C8.37519925,664.545203 11.8554098,666.010824 15.48,665.99994 L347.98,665.169976 C351.60286,665.161832 355.074179,663.679371 357.630302,661.048719 C360.186424,658.418067 361.617965,654.854714 361.61,651.142563 L360.11,13.9660282 C360.10206,10.2503156 358.652511,6.69032576 356.080807,4.07061322 C353.509102,1.45090068 350.02632,-0.0135156242 346.4,9.40195869e-05 Z" id="Shape"></path>
            </g>
            <rect id="Rectangle-path" fill="#535461" fill-rule="nonzero" transform="translate(461.932984, 333.698123) rotate(-0.140000) translate(-461.932984, -333.698123) " x="286.877984" y="11.1962277" width="350.11" height="645.003791" rx="13.64"></rect>
            <path d="M714.52,357.27 C710.82,328.27 722.41,298.42 715.52,270.03 C710.22,248.1 694.52,229.79 689.36,207.82 C681.78,175.26 699.12,141.82 721.25,116.82 C736.47,99.59 755.57,83.95 778.34,80.82 C792.4,78.82 806.85,81.91 819.83,87.64 C846.512478,99.6028343 867.016855,122.125045 876.43,149.81 C879.43,158.71 881.16,168.02 884.85,176.65 C891.2,191.52 902.85,203.52 910.1,217.98 C919.872434,237.801833 920.827428,260.826995 912.73,281.39 C904.34,302.33 886.73,319.85 884.13,342.26 C882.24,358.41 888.3,376.1 880.43,390.33 C874.49,401.07 862.26,406.49 850.68,410.55 C823.77,419.91 786.11,435.11 759.11,420.64 C735.49,407.99 717.94,384.04 714.52,357.27 Z" id="Shape" fill="#388E3C" fill-rule="nonzero"></path>
            <path d="M714.52,357.27 C710.82,328.27 722.41,298.42 715.52,270.03 C710.22,248.1 694.52,229.79 689.36,207.82 C681.78,175.26 699.12,141.82 721.25,116.82 C736.47,99.59 755.57,83.95 778.34,80.82 C792.4,78.82 806.85,81.91 819.83,87.64 C846.512478,99.6028343 867.016855,122.125045 876.43,149.81 C879.43,158.71 881.16,168.02 884.85,176.65 C891.2,191.52 902.85,203.52 910.1,217.98 C919.872434,237.801833 920.827428,260.826995 912.73,281.39 C904.34,302.33 886.73,319.85 884.13,342.26 C882.24,358.41 888.3,376.1 880.43,390.33 C874.49,401.07 862.26,406.49 850.68,410.55 C823.77,419.91 786.11,435.11 759.11,420.64 C735.49,407.99 717.94,384.04 714.52,357.27 Z" id="Shape" fill="#000000" fill-rule="nonzero" opacity="0.2"></path>
            <path d="M790.11,377.88 C790.11,377.88 829.77,361.88 834.77,352.88 C839.77,343.88 846.77,290.88 846.77,290.88" id="Shape" stroke="#333333" stroke-width="3"></path>
            <path d="M789.73,622.9 L789.73,277.9" id="Shape" stroke="#333333" stroke-width="3"></path>
            <path d="M141.45,671.35 C141.45,671.35 128.73,628.16 143.83,596.35 C150.251316,583.059617 152.188248,568.044886 149.35,553.56 C147.947991,546.692263 145.919507,539.967471 143.29,533.47" id="Shape" stroke="#535461" stroke-width="2"></path>
            <path d="M152.69,513.41 C152.69,518.7 143.11,534.05 143.11,534.05 C143.11,534.05 133.53,518.7 133.53,513.41 C133.53,508.116351 137.821351,503.825 143.115,503.825 C148.408649,503.825 152.7,508.116351 152.7,513.41 L152.69,513.41 Z" id="Shape" fill="#388E3C" fill-rule="nonzero"></path>
            <path d="M168.54,542.73 C165.66,547.17 149.28,554.85 149.28,554.85 C149.28,554.85 149.58,536.76 152.45,532.31 C154.311354,529.435798 157.564684,527.772947 160.984492,527.947826 C164.404301,528.122704 167.471038,530.108745 169.029492,533.157826 C170.587947,536.206906 170.401354,539.855798 168.54,542.73 Z" id="Shape" fill="#388E3C" fill-rule="nonzero"></path>
            <path d="M167.84,592.83 C163.11,595.21 145.09,593.57 145.09,593.57 C145.09,593.57 154.48,578.1 159.21,575.72 C162.266407,574.178399 165.913078,574.384474 168.776348,576.2606 C171.639617,578.136726 173.284486,581.397874 173.091348,584.8156 C172.89821,588.233327 170.896407,591.288399 167.84,592.83 Z" id="Shape" fill="#388E3C" fill-rule="nonzero"></path>
            <path d="M158.78,630.62 C154.52,633.77 136.49,635.19 136.49,635.19 C136.49,635.19 143.13,618.36 147.39,615.19 C151.645354,612.041977 157.646977,612.939647 160.794999,617.195 C163.943022,621.450354 163.045354,627.451977 158.79,630.6 L158.78,630.62 Z" id="Shape" fill="#388E3C" fill-rule="nonzero"></path>
            <path d="M129.11,555.88 C132.91,559.57 150.59,563.39 150.59,563.39 C150.59,563.39 146.26,545.82 142.46,542.13 C140.003799,539.745252 136.461928,538.852022 133.168575,539.78678 C129.875222,540.721539 127.330727,543.342274 126.493575,546.66178 C125.656423,549.981287 126.653799,553.495252 129.11,555.88 Z" id="Shape" fill="#388E3C" fill-rule="nonzero"></path>
            <path d="M119.11,600.2 C123.84,602.58 141.86,600.94 141.86,600.94 C141.86,600.94 132.47,585.47 127.74,583.09 C123.015204,580.706892 117.253109,582.605204 114.87,587.33 C112.486892,592.054796 114.385204,597.816891 119.11,600.2 Z" id="Shape" fill="#388E3C" fill-rule="nonzero"></path>
            <path d="M115.27,644.63 C119.53,647.78 137.56,649.2 137.56,649.2 C137.56,649.2 130.92,632.37 126.66,629.2 C122.404646,626.051977 116.403023,626.949646 113.255,631.205 C110.106977,635.460354 111.004646,641.461977 115.26,644.61 L115.27,644.63 Z" id="Shape" fill="#388E3C" fill-rule="nonzero"></path>
            <path d="M152.69,513.41 C152.69,518.7 143.11,534.05 143.11,534.05 C143.11,534.05 133.53,518.7 133.53,513.41 C133.53,508.116351 137.821351,503.825 143.115,503.825 C148.408649,503.825 152.7,508.116351 152.7,513.41 L152.69,513.41 Z" id="Shape" fill="#000000" fill-rule="nonzero" opacity="0.25"></path>
            <path d="M168.54,542.73 C165.66,547.17 149.28,554.85 149.28,554.85 C149.28,554.85 149.58,536.76 152.45,532.31 C154.311354,529.435798 157.564684,527.772947 160.984492,527.947826 C164.404301,528.122704 167.471038,530.108745 169.029492,533.157826 C170.587947,536.206906 170.401354,539.855798 168.54,542.73 Z" id="Shape" fill="#000000" fill-rule="nonzero" opacity="0.25"></path>
            <path d="M167.84,592.83 C163.11,595.21 145.09,593.57 145.09,593.57 C145.09,593.57 154.48,578.1 159.21,575.72 C162.266407,574.178399 165.913078,574.384474 168.776348,576.2606 C171.639617,578.136726 173.284486,581.397874 173.091348,584.8156 C172.89821,588.233327 170.896407,591.288399 167.84,592.83 Z" id="Shape" fill="#000000" fill-rule="nonzero" opacity="0.25"></path>
            <path d="M158.78,630.62 C154.52,633.77 136.49,635.19 136.49,635.19 C136.49,635.19 143.13,618.36 147.39,615.19 C151.645354,612.041977 157.646977,612.939647 160.794999,617.195 C163.943022,621.450354 163.045354,627.451977 158.79,630.6 L158.78,630.62 Z" id="Shape" fill="#000000" fill-rule="nonzero" opacity="0.25"></path>
            <path d="M129.11,555.88 C132.91,559.57 150.59,563.39 150.59,563.39 C150.59,563.39 146.26,545.82 142.46,542.13 C140.003799,539.745252 136.461928,538.852022 133.168575,539.78678 C129.875222,540.721539 127.330727,543.342274 126.493575,546.66178 C125.656423,549.981287 126.653799,553.495252 129.11,555.88 Z" id="Shape" fill="#000000" fill-rule="nonzero" opacity="0.25"></path>
            <path d="M119.11,600.2 C123.84,602.58 141.86,600.94 141.86,600.94 C141.86,600.94 132.47,585.47 127.74,583.09 C123.015204,580.706892 117.253109,582.605204 114.87,587.33 C112.486892,592.054796 114.385204,597.816891 119.11,600.2 Z" id="Shape" fill="#000000" fill-rule="nonzero" opacity="0.25"></path>
            <path d="M115.27,644.63 C119.53,647.78 137.56,649.2 137.56,649.2 C137.56,649.2 130.92,632.37 126.66,629.2 C122.404646,626.051977 116.403023,626.949646 113.255,631.205 C110.106977,635.460354 111.004646,641.461977 115.26,644.61 L115.27,644.63 Z" id="Shape" fill="#000000" fill-rule="nonzero" opacity="0.25"></path>
            <path d="M846.17,646.91 C846.17,646.91 830.41,593.41 849.17,554.03 C857.119356,537.567125 859.51588,518.970376 856,501.03 C854.261737,492.52472 851.747897,484.19658 848.49,476.15" id="Shape" stroke="#535461" stroke-width="2"></path>
            <path d="M860.11,451.23 C860.11,457.79 848.24,476.8 848.24,476.8 C848.24,476.8 836.37,457.8 836.37,451.23 C836.37,444.671619 841.686619,439.355 848.245,439.355 C854.803381,439.355 860.12,444.671619 860.12,451.23 L860.11,451.23 Z" id="Shape" fill="#388E3C" fill-rule="nonzero"></path>
            <path d="M879.72,487.55 C876.16,493.05 855.86,502.55 855.86,502.55 C855.86,502.55 856.23,480.14 859.79,474.63 C863.354998,469.126483 870.706482,467.555002 876.21,471.12 C881.713517,474.684998 883.284998,482.036482 879.72,487.54 L879.72,487.55 Z" id="Shape" fill="#388E3C" fill-rule="nonzero"></path>
            <path d="M878.87,549.62 C873.02,552.62 850.69,550.53 850.69,550.53 C850.69,550.53 862.32,531.37 868.18,528.41 C874.034218,525.458039 881.173037,527.810782 884.124999,533.665 C887.076961,539.519218 884.724218,546.658038 878.87,549.61 L878.87,549.62 Z" id="Shape" fill="#388E3C" fill-rule="nonzero"></path>
            <path d="M867.64,596.44 C862.37,600.34 840.02,602.1 840.02,602.1 C840.02,602.1 848.25,581.25 853.52,577.35 C858.791558,573.45087 866.22587,574.563442 870.125,579.835 C874.02413,585.106558 872.911558,592.54087 867.64,596.44 Z" id="Shape" fill="#388E3C" fill-rule="nonzero"></path>
            <path d="M830.93,503.84 C835.63,508.41 857.55,513.14 857.55,513.14 C857.55,513.14 852.18,491.37 847.48,486.81 C842.745404,482.511884 835.456943,482.736792 830.996366,487.318654 C826.535789,491.900515 826.506444,499.192386 830.93,503.81 L830.93,503.84 Z" id="Shape" fill="#388E3C" fill-rule="nonzero"></path>
            <path d="M818.5,558.76 C824.35,561.76 846.68,559.67 846.68,559.67 C846.68,559.67 835.05,540.51 829.19,537.55 C825.402985,535.640415 820.884887,535.896235 817.337631,538.221094 C813.790374,540.545953 811.752872,544.586651 811.992631,548.821094 C812.23239,553.055538 814.712985,556.840415 818.5,558.75 L818.5,558.76 Z" id="Shape" fill="#388E3C" fill-rule="nonzero"></path>
            <path d="M813.74,613.79 C819.01,617.69 841.36,619.45 841.36,619.45 C841.36,619.45 833.13,598.6 827.86,594.7 C822.588442,590.80087 815.15413,591.913442 811.255,597.185 C807.35587,602.456558 808.468442,609.89087 813.74,613.79 Z" id="Shape" fill="#388E3C" fill-rule="nonzero"></path>
            <path d="M860.11,451.23 C860.11,457.79 848.24,476.8 848.24,476.8 C848.24,476.8 836.37,457.8 836.37,451.23 C836.37,444.671619 841.686619,439.355 848.245,439.355 C854.803381,439.355 860.12,444.671619 860.12,451.23 L860.11,451.23 Z" id="Shape" fill="#FFFFFF" fill-rule="nonzero" opacity="0.5"></path>
            <path d="M879.72,487.55 C876.16,493.05 855.86,502.55 855.86,502.55 C855.86,502.55 856.23,480.14 859.79,474.63 C863.354998,469.126483 870.706482,467.555002 876.21,471.12 C881.713517,474.684998 883.284998,482.036482 879.72,487.54 L879.72,487.55 Z" id="Shape" fill="#FFFFFF" fill-rule="nonzero" opacity="0.5"></path>
            <path d="M628.91,619.29 C628.926593,626.6315 622.991486,632.597939 615.65,632.62 L309.65,633.36 C302.3085,633.376593 296.342061,627.441486 296.32,620.1 L296.11,530.35 L294.94,46.43 C294.923407,39.0884998 300.858514,33.122061 308.2,33.1 L614.11,32.36 C621.4515,32.343407 627.417939,38.2785142 627.44,45.62 L628.69,530.35 L628.91,619.29 Z" id="Shape" fill="#FFFFFF" fill-rule="nonzero"></path>
            <path d="M878.87,549.62 C873.02,552.62 850.69,550.53 850.69,550.53 C850.69,550.53 862.32,531.37 868.18,528.41 C874.034218,525.458039 881.173037,527.810782 884.124999,533.665 C887.076961,539.519218 884.724218,546.658038 878.87,549.61 L878.87,549.62 Z" id="Shape" fill="#FFFFFF" fill-rule="nonzero" opacity="0.5"></path>
            <path d="M867.64,596.44 C862.37,600.34 840.02,602.1 840.02,602.1 C840.02,602.1 848.25,581.25 853.52,577.35 C858.791558,573.45087 866.22587,574.563442 870.125,579.835 C874.02413,585.106558 872.911558,592.54087 867.64,596.44 Z" id="Shape" fill="#FFFFFF" fill-rule="nonzero" opacity="0.5"></path>
            <path d="M830.93,503.84 C835.63,508.41 857.55,513.14 857.55,513.14 C857.55,513.14 852.18,491.37 847.48,486.81 C842.745404,482.511884 835.456943,482.736792 830.996366,487.318654 C826.535789,491.900515 826.506444,499.192386 830.93,503.81 L830.93,503.84 Z" id="Shape" fill="#FFFFFF" fill-rule="nonzero" opacity="0.5"></path>
            <path d="M818.5,558.76 C824.35,561.76 846.68,559.67 846.68,559.67 C846.68,559.67 835.05,540.51 829.19,537.55 C825.402985,535.640415 820.884887,535.896235 817.337631,538.221094 C813.790374,540.545953 811.752872,544.586651 811.992631,548.821094 C812.23239,553.055538 814.712985,556.840415 818.5,558.75 L818.5,558.76 Z" id="Shape" fill="#FFFFFF" fill-rule="nonzero" opacity="0.5"></path>
            <g id="Shape" fill-rule="nonzero">
                <use fill="black" fill-opacity="1" filter="url(#filter-3)" xlink:href="#path-2"></use>
                <use fill="url(#linearGradient-1)" fill-rule="evenodd" xlink:href="#path-2"></use>
            </g>
            <path d="M813.74,613.79 C819.01,617.69 841.36,619.45 841.36,619.45 C841.36,619.45 833.13,598.6 827.86,594.7 C822.588442,590.80087 815.15413,591.913442 811.255,597.185 C807.35587,602.456558 808.468442,609.89087 813.74,613.79 Z" id="Shape" fill="#FFFFFF" fill-rule="nonzero" opacity="0.5"></path>
            <g id="Group" opacity="0.6" transform="translate(312.000000, 48.000000)" fill="#388E3C" fill-rule="nonzero">
                <rect id="Rectangle-path" x="0.09" y="0.86" width="64" height="64" rx="10.5"></rect>
                <rect id="Rectangle-path" x="79.09" y="0.86" width="64" height="64" rx="10.5"></rect>
                <rect id="Rectangle-path" x="158.09" y="0.86" width="64" height="64" rx="10.5"></rect>
                <rect id="Rectangle-path" x="237.09" y="0.86" width="64" height="64" rx="10.5"></rect>
            </g>
            <rect id="Rectangle-path" fill="#388E3C" fill-rule="nonzero" x="311.76" y="205.86" width="64" height="64" rx="10.5"></rect>
            <rect id="Rectangle-path" fill="#388E3C" fill-rule="nonzero" opacity="0.6" x="390.76" y="205.86" width="64" height="64" rx="10.5"></rect>
            <rect id="Rectangle-path" fill="#388E3C" fill-rule="nonzero" opacity="0.6" x="469.76" y="205.86" width="64" height="64" rx="10.5"></rect>
            <rect id="Rectangle-path" fill="#388E3C" fill-rule="nonzero" opacity="0.6" x="548.76" y="205.86" width="64" height="64" rx="10.5"></rect>
            <g id="Group" opacity="0.6" transform="translate(312.000000, 125.000000)" fill="#388E3C" fill-rule="nonzero">
                <rect id="Rectangle-path" x="0.43" y="0.86" width="64" height="64" rx="10.5"></rect>
                <rect id="Rectangle-path" x="79.43" y="0.86" width="64" height="64" rx="10.5"></rect>
                <rect id="Rectangle-path" x="158.43" y="0.86" width="64" height="64" rx="10.5"></rect>
                <rect id="Rectangle-path" x="237.43" y="0.86" width="64" height="64" rx="10.5"></rect>
            </g>
            <g id="Group" opacity="0.6" transform="translate(311.000000, 375.000000)" fill="#388E3C" fill-rule="nonzero">
                <rect id="Rectangle-path" x="0.11" y="0.86" width="64" height="64" rx="10.5"></rect>
                <rect id="Rectangle-path" x="79.11" y="0.86" width="64" height="64" rx="10.5"></rect>
                <rect id="Rectangle-path" x="158.11" y="0.86" width="64" height="64" rx="10.5"></rect>
                <rect id="Rectangle-path" x="237.11" y="0.86" width="64" height="64" rx="10.5"></rect>
            </g>
            <g id="Group" opacity="0.6" transform="translate(312.000000, 290.000000)" fill="#388E3C" fill-rule="nonzero">
                <rect id="Rectangle-path" x="0.11" y="0.86" width="64" height="64" rx="10.5"></rect>
                <rect id="Rectangle-path" x="79.11" y="0.86" width="64" height="64" rx="10.5"></rect>
                <rect id="Rectangle-path" x="158.11" y="0.86" width="64" height="64" rx="10.5"></rect>
                <rect id="Rectangle-path" x="237.11" y="0.86" width="64" height="64" rx="10.5"></rect>
            </g>
            <g id="Group" opacity="0.6" transform="translate(311.000000, 458.000000)" fill="#388E3C" fill-rule="nonzero">
                <rect id="Rectangle-path" x="0.43" y="0.86" width="64" height="64" rx="10.5"></rect>
                <rect id="Rectangle-path" x="79.43" y="0.86" width="64" height="64" rx="10.5"></rect>
                <rect id="Rectangle-path" x="158.43" y="0.86" width="64" height="64" rx="10.5"></rect>
                <rect id="Rectangle-path" x="237.43" y="0.86" width="64" height="64" rx="10.5"></rect>
            </g>
            <g id="Group" opacity="0.6" transform="translate(311.000000, 539.000000)" fill="url(#linearGradient-4)" fill-rule="nonzero">
                <rect id="Rectangle-path" x="0.11" y="0.86" width="64" height="64" rx="10.5"></rect>
                <rect id="Rectangle-path" x="79.11" y="0.86" width="64" height="64" rx="10.5"></rect>
                <rect id="Rectangle-path" x="158.11" y="0.86" width="64" height="64" rx="10.5"></rect>
                <rect id="Rectangle-path" x="237.11" y="0.86" width="64" height="64" rx="10.5"></rect>
            </g>
            <path d="M345.11,278.21 L345.11,283.99 L320.73,268.59 L323.3,265.38 L324.49,266.08 L343.36,238.43 L343.36,222.35 L350.55,222.99 L350.55,220.42 C369.55,198.6 371.46,222.99 367.55,230.05 C363.64,237.11 356.44,242.24 356.44,242.24 C352.44,245.6 345.44,271 343.75,277.37 L345.11,278.21 Z" id="Shape" fill="url(#linearGradient-5)" fill-rule="nonzero"></path>
            <path d="M160.26,328.6 C160.26,328.6 178.87,365.01 173.09,401.42 C171.15,413.66 171.96,421.14 173.9,425.7 C173.365437,430.629211 172.013608,435.434965 169.9,439.92 C162.84,454.68 162.84,470.08 171.82,488.05 L174.39,581.05 C174.39,581.05 177.6,624.68 174.39,633.67 C171.18,642.66 175.67,685.67 175.67,685.67 L175.03,685.67 L175.03,709.41 L223.11,710.7 C223.11,710.7 234.38,705.35 236.38,701.35 L260.54,708.78 C260.54,708.78 287.13,704.2 271.54,697.86 C259.93,693.14 257.05,686.39 256.33,683.27 L294.33,574.01 C294.33,574.01 287.27,481.01 261.6,448.88 L259,429.96 L259.36,429.96 L264.81,319.49 L265.26,319.55 L265.13,319.55 C279.180578,321.795318 293.514929,321.575362 307.49,318.9 C311.681041,318.155025 315.790181,317.006341 319.76,315.47 L320.49,315.18 L320.57,315.18 L320.64,315.18 C323.614272,313.960926 326.417699,312.360888 328.98,310.42 L344.98,285.91 L320.6,269.11 L312.26,281.01 C312.26,281.01 286.13,275.49 271.78,269.67 C265.099919,266.942666 257.990849,265.415908 250.78,265.16 L235.11,264.62 L227.3,259.93 L229.74,253.62 C229.98,253.51 230.22,253.4 230.46,253.27 L230.68,251.92 C250.735747,246.939532 262.960699,226.64817 257.99,206.59 L258.5,206.59 C258.28,193.59 254.3,192.32 254.3,192.32 C254.3,179.1 242.75,169.43 229.59,168.32 C222.775216,167.850551 215.928951,168.45116 209.3,170.1 C199.55339,172.427148 192.337491,180.653273 191.3,190.62 C174.11,195.35 179.87,204.35 179.6,207.8 C178.28,224.6 183.6,234.53 189.5,240.32 C191.997459,242.928851 194.931587,245.081222 198.17,246.68 L194.42,254.19 L193.32,254.19 L190.26,263.19 L190.11,263.19 L186.77,265.35 C166.16212,279.302361 155.758765,304.123645 160.26,328.6 Z M211.59,685.67 L211.59,656.8 L223.78,571.46 L223.78,527.82 L245.61,573.35 L222.11,672.11 L220.88,671.77 L215.47,691.21 C213.705915,689.744365 212.369103,687.830686 211.6,685.67 L211.59,685.67 Z" id="Shape" fill="url(#linearGradient-6)" fill-rule="nonzero"></path>
            <path d="M340.22,230.88 L340.22,246.29 L321.86,273.19 L340.22,285.14 C340.22,285.14 348.38,253.7 352.78,250 C352.78,250 359.69,245.07 363.45,238.29 C367.21,231.51 365.33,208.08 347.12,229.04 L347.12,231.51 L340.22,230.88 Z" id="Shape" fill="#FDA57D" fill-rule="nonzero"></path>
            <path d="M194.04,267.64 L201.31,253.1 C201.742087,252.229859 202.609787,251.660311 203.58,251.61 L231.19,250.2 C232.101768,250.151653 232.975814,250.5691 233.51128,251.308649 C234.046747,252.048199 234.170521,253.008875 233.84,253.86 L226.72,272.27 C226.287518,273.389712 225.165517,274.087393 223.97,273.98 L196.22,271.51 C195.33488,271.433231 194.544752,270.924379 194.108708,270.150301 C193.672665,269.376224 193.646951,268.43677 194.04,267.64 Z" id="Shape" fill="#FDA57D" fill-rule="nonzero"></path>
            <polygon id="Shape" fill="#EDEEF9" fill-rule="nonzero" points="196.08 261.4 191.39 275.15 239.55 273.42 221.05 262.32"></polygon>
            <polygon id="Shape" fill="#EDEEF9" fill-rule="nonzero" points="318.47 275.27 320.93 272.19 341.89 284.52 341.89 290.07"></polygon>
            <path d="M176.83,411.67 C178.764221,421.183406 177.626154,431.065333 173.58,439.89 C166.8,454.07 166.8,468.89 175.43,486.13 L177.9,575.53 C177.9,575.53 180.98,617.46 177.9,626.09 C174.82,634.72 179.11,676.04 179.11,676.04 L213.64,676.04 L213.64,648.29 L225.35,566.29 L225.35,524.35 L246.35,568.13 L222.35,669.25 L253.79,682.2 L293.25,568.75 C293.25,568.75 286.41,479.35 261.75,448.53 L257.11,414.92 L176.83,411.67 Z" id="Shape" fill="#7A7478" fill-rule="nonzero"></path>
            <path d="M178.51,698.85 L178.51,676.04 L213.65,676.04 C213.65,676.04 216.12,685.29 232.15,687.14 C248.18,688.99 224.75,700.09 224.75,700.09 L178.51,698.85 Z" id="Shape" fill="#333333" fill-rule="nonzero"></path>
            <path d="M216.47,684.65 L222.59,662.65 L256.45,672.08 C256.45,672.08 256.34,681.65 271.29,687.73 C286.24,693.81 260.69,698.22 260.69,698.22 L216.47,684.65 Z" id="Shape" fill="#333333" fill-rule="nonzero"></path>
            <path d="M257.11,416.77 L176.82,413.52 C177.814475,418.30778 178.02052,423.225816 177.43,428.08 C181.1,436.72 188.98,434.36 188.98,434.36 L259.23,432.2 L257.11,416.77 Z" id="Shape" fill="#000000" fill-rule="nonzero" opacity="0.1"></path>
            <path d="M193,270.03 L189.8,272.2 C170.013283,285.602039 160.020056,309.433549 164.33,332.94 C164.33,332.94 182.21,367.94 176.66,402.94 C171.11,437.94 188.99,432.54 188.99,432.54 L259.59,430.37 L264.83,324.22 C264.83,324.22 307.37,330.27 326.49,315.47 L341.9,291.92 L318.47,275.75 L310.47,287.19 C310.47,287.19 285.36,281.89 271.57,276.29 C265.138017,273.665775 258.29258,272.199863 251.35,271.96 L193,270.03 Z" id="Shape" fill="#4D8AF0" fill-rule="nonzero"></path>
            <path d="M193.62,440.82 C193.62,440.82 189.3,462.4 213.97,498.16" id="Shape" fill="#000000" fill-rule="nonzero" opacity="0.1"></path>
            <path d="M265.11,324.29 C265.11,324.29 294.7,314.43 307.65,314.43 C320.6,314.43 318.44,320.02 318.44,320.02 C318.44,320.02 297.82,329.22 265.11,324.29 Z" id="Shape" fill="#000000" fill-rule="nonzero" opacity="0.1"></path>
            <path d="M231.58,251.45 L219.8,252.86 C219.43,252.86 219.09,253.37 218.89,254.1 C221.48,258.77 224.72,261.55 228.24,261.55 C229.496424,261.530794 230.726419,261.186257 231.81,260.55 L232.71,255.1 C233.01,253.29 232.41,251.35 231.58,251.45 Z" id="Shape" fill="#000000" fill-rule="nonzero" opacity="0.1"></path>
            <circle id="Oval" fill="#FDA57D" fill-rule="nonzero" cx="223.36" cy="224.35" r="35.96"></circle>
            <path d="M253.95,203.99 L252.11,205.65 C250.54339,207.084337 249.817016,209.218935 250.183602,211.311111 C250.550189,213.403288 251.959048,215.163755 253.92,215.98 C253.92,215.98 237.81,232.09 235.57,235.08 C233.33,238.07 235.94,245.94 235.94,245.94 C235.94,245.94 243.06,259.05 205.6,256.05 C205.6,256.05 180.88,250.81 183.5,217.47 C183.76,214.13 178.26,205.47 194.74,200.99 C195.751916,191.397827 202.720025,183.495021 212.11,181.29 C218.480853,179.705389 225.060587,179.128397 231.61,179.58 C244.261014,180.690174 253.962303,191.290374 253.95,203.99 Z" id="Shape" fill="#000000" fill-rule="nonzero" opacity="0.1"></path>
            <path d="M254.73,202.03 C254.73,202.03 258.55,203.21 258.73,215.74 L253.3,215.37 C253.3,215.37 240.74,248.97 242.06,244.59 C246.93,228.48 237.19,231.48 234.94,234.48 C232.69,237.48 235.31,245.34 235.31,245.34 C235.31,245.34 242.43,258.45 204.97,255.45 C204.97,255.45 180.25,250.21 182.87,216.87 C183.13,213.53 177.63,204.87 194.11,200.39 C195.113895,190.802565 202.068616,182.897285 211.45,180.68 C217.820853,179.095389 224.400587,178.518397 230.95,178.97 C243.63,180.04 254.73,189.35 254.73,202.03 Z" id="Shape" fill="#72351C" fill-rule="nonzero"></path>
        </g>
        <g id="android-nav" transform="translate(366.000000, 602.000000)" fill="#999999">
            <g id="android-square" transform="translate(170.000000, 0.000000)">
                <rect id="Rectangle" x="0" y="0" width="18" height="18" rx="1"></rect>
            </g>
            <g id="android-back" transform="translate(9.000000, 9.000000) scale(-1, 1) translate(-9.000000, -9.000000) " fill-rule="nonzero">
                <polygon id="Shape" points="0 0 18 9 0 18"></polygon>
            </g>
            <g id="android-circle" transform="translate(85.000000, 0.000000)" fill-rule="nonzero">
                <path d="M9,18 C4.02943725,18 6.08718376e-16,13.9705627 0,9 C-6.08718376e-16,4.02943725 4.02943725,9.13077564e-16 9,0 C13.9705627,3.04359188e-16 18,4.02943725 18,9 C18,13.9705627 13.9705627,18 9,18 Z" id="Shape"></path>
                <g id="minus-solid" transform="translate(0.900000, 0.900000)" stroke="#FFFFFF">
                    <path d="M8.1,16.2 C3.62649353,16.2 5.47846538e-16,12.5735065 0,8.1 C-5.47846538e-16,3.62649353 3.62649353,8.21769808e-16 8.1,0 C12.5735065,2.73923269e-16 16.2,3.62649353 16.2,8.1 C16.2,12.5735065 12.5735065,16.2 8.1,16.2 Z" id="Shape"></path>
                </g>
            </g>
        </g>
    </g>
</svg>